PathFileType	4	(X/Y/Z)	5_coords_data.trc
DataRate	CameraRate	NumFrames	NumMarkers	Units	OrigDataRate	OrigDataStartFrame	OrigNumFrames
30.0	30.0	7	21	m	30.0	10	57
Frame#	Time	THUMB_TIP	THUMB_IP	THUMB_MCP	THUMB_CMC	INDEX_TIP	INDEX_DIP	INDEX_PIP	INDEX_MCP	MIDDLE_TIP	MIDDLE_DIP	MIDDLE_PIP	MIDDLE_MCP	RING_TIP	RING_DIP	RING_PIP	RING_MCP	PINKY_TIP	PINKY_DIP	PINKY_PIP	PINKY_MCP	WRIST
X1	Y1	Z1	X2	Y2	Z2	X3	Y3	Z3	X4	Y4	Z4	X5	Y5	Z5	X6	Y6	Z6	X7	Y7	Z7	X8	Y8	Z8	X9	Y9	Z9	X10	Y10	Z10	X11	Y11	Z11	X12	Y12	Z12	X13	Y13	Z13	X14	Y14	Z14	X15	Y15	Z15	X16	Y16	Z16	X17	Y17	Z17	X18	Y18	Z18	X19	Y19	Z19	X20	Y20	Z20	X21	Y21	Z21
8	0.2999999999999987	0.46002874869529076	-0.04737224060014078	-0.17117717952106384	0.46860685835493476	-0.04260959960978972	-0.15039898697541276	0.4621822196111879	-0.029747497263648337	-0.12279264096132152	0.4704249274502954	-0.02807860163479836	-0.07898439339469177	0.5689397738966319	0.025762389822547527	-0.17461708532626022	0.5556637059146359	0.02261537259253099	-0.16270732875899988	0.5376404260839082	0.017809102968139645	-0.14585292312008935	0.5108790417372328	0.0033348070942753605	-0.11605427951328476	0.5991648175661501	0.04352276126294885	-0.13175598241578346	0.5831090959285776	0.03699937332641001	-0.12649677976460091	0.5575190435615662	0.02719593802706477	-0.11657451055916399	0.5214364031281938	0.007486455303233441	-0.09908945204868234	0.6012113642447755	0.044788750197725435	-0.10069352657484179	0.586534028389244	0.03508647607563098	-0.09676393511469436	0.5651900467875601	0.023646002064187988	-0.09095618315886043	0.5314833877624394	0.0028134592289588145	-0.08291957128677213	0.6016613986015767	0.019262980573144017	-0.05697590612812933	0.5861078938054826	0.012477364921569478	-0.05922177094752076	0.566495945181428	0.005498373865057804	-0.061956213121087345	0.5329017229589745	-0.006845266150175444	-0.06642233397063291	0.4622830810018609	-0.023011742144276925	-0.051989820119430985
9	0.33333333333333187	0.4601655211099319	-0.047347642775051435	-0.17120138143671843	0.46871552237432224	-0.04258320775500657	-0.15041201787458175	0.46227082202173275	-0.029746982269824862	-0.1227983047476062	0.4704463723611585	-0.028081681142364756	-0.07897733774775104	0.5689409198580964	0.025689247486608502	-0.17465225579252097	0.5556685493046712	0.022536435256136578	-0.1627399111479112	0.5376509965206419	0.017750479972640232	-0.14587360578191333	0.5108781870976628	0.003361191943835773	-0.11604407075997658	0.5992027909321851	0.04348563790940152	-0.1317077703543905	0.5831362433111777	0.03697964381855279	-0.1264600957806628	0.5575285708130749	0.027213015089709525	-0.11654699220494842	0.5214128022713603	0.007550258692514578	-0.0990777279243364	0.6014278834485347	0.044517748388044676	-0.10052116550491232	0.5867258774019106	0.03483088577465798	-0.09664615441919877	0.5653380198290238	0.023441704383036166	-0.09089932271201939	0.5314815397451895	0.0028376768064185542	-0.08290347141557017	0.6017070223836546	0.01914135847981291	-0.056946367669715614	0.5861432902771924	0.012379967615598897	-0.059194441623036304	0.5665160342320388	0.005452391881447083	-0.061949715399918365	0.5329018382738422	-0.006837683425768515	-0.06641327116040058	0.4622830810018609	-0.023011742144276925	-0.051989820119430985
10	0.3666666666666651	0.4602841691773296	-0.04732300127891309	-0.17122809714881934	0.46880947532310013	-0.04256533404909224	-0.1504270453087998	0.46234393936469653	-0.02975502158950316	-0.12280617024195428	0.47045854761641626	-0.02807812816316857	-0.07897431925026288	0.5689390686055102	0.025549918849756992	-0.17471111479562867	0.5556688067924077	0.022406430703823976	-0.1627939576812792	0.5376548365816068	0.017661475581872477	-0.145912248314777	0.510857464187358	0.0033941132445438615	-0.11604622583605838	0.5992240789902692	0.04342944700385709	-0.1317077530275519	0.5831456915337551	0.03694820484134209	-0.12646571555829977	0.5575236625513312	0.027222186140757554	-0.11654978186248893	0.5213730966785005	0.00762459752417477	-0.09907926302390518	0.6016320482211376	0.04424967026477655	-0.10038450884402353	0.5869091555799817	0.03457582979893792	-0.09655655339515824	0.5654791460954323	0.02323835805087593	-0.0908647692413076	0.5314700934894628	0.0028761992279772164	-0.0828968546511866	0.6017439424430607	0.019051974865711196	-0.056927460869230506	0.5861705577300993	0.012316599499524461	-0.05918675440010693	0.5665284022809631	0.005435894837719446	-0.06195327779039053	0.5328948044708512	-0.006803654324913699	-0.06640950777134116	0.4622830810018608	-0.023011742144276925	-0.051989820119430985
11	0.39999999999999825	0.4603910052666066	-0.04728272278732659	-0.1712499431936531	0.4689067234212194	-0.042532459437234826	-0.15044327257060608	0.46242353549882054	-0.02974887720967212	-0.12281415206715891	0.47047231922844446	-0.028079541172863376	-0.07896987766707386	0.5689668323782676	0.02537039838284416	-0.17475648746534642	0.5556955781507366	0.02224738778484514	-0.16283505231545675	0.5376784141338634	0.017560047998085526	-0.14594066036094852	0.5108490322492316	0.0034350679360138914	-0.11603572264266053	0.5992662608097449	0.04334925115902566	-0.13170545334728215	0.5831766791953134	0.036897307511082	-0.12646162014662563	0.5575374003176928	0.027220230843093995	-0.11654239054965174	0.5213486775359505	0.007707519412263331	-0.09905587125496815	0.6018552105395144	0.04395990291259266	-0.10023326054814717	0.5871059556749837	0.034308279334121394	-0.09645098038393235	0.5656295511423931	0.023032733657329385	-0.0908112909383065	0.5314702970802682	0.002915696103624743	-0.08286327257005643	0.60178450864363	0.01896495351158567	-0.05686603962526199	0.5861989787898381	0.012260940479648874	-0.05913484293189428	0.5665406383926389	0.005431522509772635	-0.061913461657191776	0.5328927193534926	-0.006765869746192421	-0.066377161634698	0.4622830810018609	-0.023011742144276925	-0.051989820119430985
12	0.43333333333333146	0.4605037805329434	-0.0472507920729216	-0.17128194007507475	0.4690167489182022	-0.04250895084707507	-0.15047222332879376	0.46254702947227266	-0.029757496503419634	-0.12282510517133241	0.4704965562078661	-0.028075893872557045	-0.07896319416335235	0.5690224467399627	0.02515324724094592	-0.17478907506083974	0.5557462492830482	0.022054657107499875	-0.1628667715808099	0.53771933846878	0.017436781481921182	-0.14596364925973848	0.5108481016956649	0.0034703348425741964	-0.1160218541139316	0.5993138557167792	0.04324595718848223	-0.13171076924492203	0.5832111617625345	0.03682735216497535	-0.12646627146456815	0.5575520618063963	0.02720830118133477	-0.11654185724432135	0.5213296719644445	0.007777198313413836	-0.09903418359891818	0.6020697588503363	0.043674034819898844	-0.1001000562470374	0.5872945094889311	0.03404719513333665	-0.0963562661944933	0.5657698944382892	0.022839859516938565	-0.09076461578490141	0.5314674543169718	0.0029624849857007307	-0.08283029681801135	0.6018186499590354	0.018890022465891554	-0.056789353511177004	0.5862245209154668	0.012210058438105298	-0.05906997183961607	0.5665486315283158	0.005438243910762086	-0.06186531150267344	0.5328885001764506	-0.006719415736402445	-0.06634530260521851	0.4622830810018608	-0.023011742144276925	-0.051989820119430985
13	0.4666666666666647	0.4605741110925341	-0.047185687382924724	-0.17130175130559505	0.469091242594493	-0.042463536316271644	-0.15048926081834085	0.4626175010097767	-0.029745211635392454	-0.12282782760879704	0.4705193405349194	-0.028071979871900687	-0.07895698048243605	0.5690812243195281	0.02494466884552482	-0.17481402385052985	0.5557961502263962	0.02186450364267223	-0.16289683506025188	0.5377567029648814	0.01731139253281966	-0.14598951845706598	0.5108481843310418	0.003495527087264305	-0.11601136673080677	0.5993569039605942	0.04313766454533019	-0.13172878169737967	0.5832415693209346	0.03675279771343731	-0.1264819288320147	0.5575630677944109	0.02719324100865017	-0.11655021271845811	0.521310078353105	0.007844515973533861	-0.09901466262489018	0.6022522564065773	0.04343367700443723	-0.09998818613761647	0.5874540521005207	0.03383094999552794	-0.09627324558512113	0.5658885169286606	0.02268253068991699	-0.09072163151914484	0.5314596064069704	0.0030202327539209373	-0.08279919539345794	0.6018380988329728	0.018866620689718894	-0.056708464939498465	0.5862376184821014	0.01220693771928516	-0.05900490469603212	0.5665521053604438	0.0054690772599211845	-0.06181450049742135	0.5328825409990748	-0.006658458134505829	-0.06630524341731336	0.4622830810018609	-0.023011742144276925	-0.051989820119430985
14	0.4999999999999978	0.4606699682679425	-0.04709880765932151	-0.17134333183140837	0.46919526202690043	-0.042414874527038515	-0.15052554768573675	0.46274281881004875	-0.029735815581092617	-0.12284112172494549	0.4705412508643376	-0.028064364349659976	-0.07895170718937002	0.5691521113359604	0.024789605672428605	-0.17480979864807844	0.5558603452458115	0.02170820822499442	-0.16290039295443803	0.5378041389507621	0.017197166227656213	-0.14599969038534744	0.5108415193615522	0.0035264563736975285	-0.1160036084582617	0.599391687761485	0.04304582868001994	-0.1317415155469884	0.5832663467358676	0.03668821425543323	-0.12649231411859707	0.5575702814156261	0.027180532141804825	-0.11655623048951685	0.5212835181088585	0.007908777429875946	-0.0990057832005765	0.6023956020995448	0.043244121144597636	-0.09990144322736239	0.5875774066395313	0.03366446407603474	-0.09620668291611498	0.5659793572584622	0.02256259600918309	-0.0906882803067429	0.5314486781067943	0.003074820114859489	-0.08277755202059933	0.6018501266959164	0.01885447288848774	-0.05663002281639956	0.5862431176701964	0.012215976894832337	-0.058943384053499304	0.5665490524222428	0.005509686733794483	-0.061768536312282823	0.5328715507949922	-0.006588383368400508	-0.06627919424089004	0.4622830810018608	-0.023011742144276925	-0.051989820119430985
